<?xml version="1.0" standalone="no"?>
<!DOCTYPE svg PUBLIC "-//W3C//DTD SVG 20010904//EN"
 "http://www.w3.org/TR/2001/REC-SVG-20010904/DTD/svg10.dtd">
<svg version="1.0" xmlns="http://www.w3.org/2000/svg"
 width="300.000000pt" height="282.000000pt" viewBox="0 0 300.000000 282.000000"
 preserveAspectRatio="xMidYMid meet">

<g transform="translate(0.000000,282.000000) scale(0.100000,-0.100000)"
fill="#000000" stroke="none">
<path d="M1926 2571 c-9 -9 -16 -25 -16 -33 0 -9 -4 -18 -10 -20 -5 -1 -7 -13
-4 -26 5 -18 9 -20 20 -11 8 7 12 20 9 30 -4 11 -2 19 4 19 6 0 11 -8 11 -17
0 -15 4 -13 20 7 l19 25 -5 -25 c-2 -14 -1 -18 2 -10 4 8 10 22 15 31 6 11 0
20 -20 32 -27 16 -29 15 -45 -2z"/>
<path d="M1775 2530 c3 -5 8 -10 11 -10 2 0 4 5 4 10 0 6 -5 10 -11 10 -5 0
-7 -4 -4 -10z"/>
<path d="M1833 2506 c16 -14 23 -26 16 -28 -7 -2 -6 -8 5 -17 14 -12 16 -9 16
22 0 28 -5 36 -22 41 -40 10 -44 6 -15 -18z"/>
<path d="M2050 2470 c0 -50 -1 -52 -87 -143 -48 -51 -72 -78 -53 -61 28 26 39
30 58 23 12 -4 22 -14 22 -20 0 -7 3 -9 7 -6 3 4 15 0 25 -9 15 -14 16 -20 6
-33 -13 -17 100 86 140 127 15 16 22 35 22 62 0 37 -3 40 -64 74 -35 20 -67
36 -70 36 -3 0 -6 -23 -6 -50z"/>
<path d="M2003 2503 c-7 -3 -13 -12 -13 -21 0 -15 2 -15 17 1 18 18 16 27 -4
20z"/>
<path d="M1929 2473 c-13 -16 -12 -17 4 -4 9 7 17 15 17 17 0 8 -8 3 -21 -13z"/>
<path d="M2021 2470 c0 -8 -8 -28 -17 -45 l-15 -30 21 21 c14 14 20 30 17 45
-2 13 -5 17 -6 9z"/>
<path d="M848 2432 l-48 -27 1 -295 1 -295 19 100 c11 55 26 125 35 155 8 30
17 80 19 110 10 155 18 225 26 228 11 4 12 52 2 51 -5 0 -29 -12 -55 -27z"/>
<path d="M1788 2423 c6 -2 9 -10 6 -15 -4 -7 -2 -8 4 -4 18 11 14 26 -5 25
-11 0 -13 -3 -5 -6z"/>
<path d="M2210 2399 c0 -26 -16 -49 -92 -133 -51 -56 -83 -93 -72 -84 20 17
21 16 47 -41 15 -33 27 -73 27 -89 0 -17 4 -33 9 -36 5 -4 13 -25 17 -49 l7
-42 13 38 c7 21 23 51 34 67 12 16 24 53 27 82 11 103 22 83 23 -42 1 -69 3
-120 5 -115 2 6 22 73 45 150 23 77 45 144 49 148 7 7 -34 -229 -69 -399 l-11
-51 -67 -12 c-37 -7 -86 -14 -109 -14 -24 -1 -43 -7 -43 -12 0 -11 -125 -51
-150 -48 -8 1 -19 -5 -23 -13 -4 -8 -16 -14 -25 -14 -9 0 -28 -9 -41 -19 -21
-16 -23 -24 -19 -75 3 -32 2 -52 -2 -44 -4 7 -10 46 -14 86 l-6 72 45 0 c55 0
60 8 50 95 -6 63 -7 65 -35 65 -24 0 -29 5 -34 35 -5 23 -2 45 9 64 18 36 19
59 3 135 -8 45 -16 60 -34 68 -22 10 -23 15 -18 63 7 59 -9 85 -54 85 -52 0
-57 -11 -53 -99 1 -11 11 -23 24 -27 20 -7 19 -8 -13 -19 -28 -9 -41 -22 -62
-64 -23 -45 -90 -131 -102 -131 -2 0 -18 23 -35 50 -24 39 -31 62 -31 100 0
39 -4 52 -17 57 -38 13 -45 25 -22 37 12 6 27 28 34 48 11 34 10 39 -9 58 -45
41 -96 16 -96 -49 0 -40 -11 -59 -51 -83 -20 -13 -29 -32 -42 -90 -15 -64 -16
-79 -4 -124 13 -46 13 -54 -4 -85 -24 -46 -24 -50 8 -47 23 3 28 -2 36 -32 5
-19 7 -92 5 -162 l-5 -128 23 0 c17 0 25 7 30 25 5 20 11 24 28 19 11 -3 27
-14 35 -25 14 -20 38 -23 80 -12 23 6 23 8 16 72 -13 123 -14 255 -2 263 9 5
7 15 -6 37 -21 35 -22 45 -3 38 8 -3 17 1 20 9 3 9 10 12 16 9 6 -4 8 -11 5
-16 -11 -17 12 -9 50 17 l38 25 -6 -38 c-4 -21 -7 -111 -7 -201 0 -106 -3
-161 -10 -157 -6 4 -10 -7 -10 -24 0 -31 14 -42 23 -18 3 7 6 5 6 -5 1 -15 12
-18 69 -19 312 -5 655 -58 977 -150 39 -11 78 -23 88 -25 16 -5 17 10 17 224
l0 230 -25 6 c-22 6 -25 12 -24 44 2 20 6 42 11 49 5 6 8 40 6 75 l-3 63 -12
-40 c-7 -22 -13 -74 -15 -116 -3 -75 -3 -76 -26 -68 -13 5 -54 9 -92 9 -68 0
-70 1 -76 28 -10 47 -14 49 -9 5 5 -39 3 -43 -17 -44 -13 0 -56 -2 -95 -4 -57
-3 -73 -1 -73 10 0 7 16 64 35 125 19 61 35 126 36 143 0 18 3 25 6 17 4 -10
11 -4 20 20 l13 35 -4 -35 c-3 -19 -7 -51 -11 -70 l-6 -35 25 45 c28 49 36 33
10 -19 -32 -64 -31 -231 1 -231 12 0 15 20 17 103 1 107 3 131 14 185 9 48 19
39 16 -15 -3 -48 24 -131 60 -184 15 -23 16 -19 23 84 4 59 10 107 14 107 4 0
14 -42 22 -92 l14 -93 6 85 c3 47 6 75 7 63 3 -37 20 -26 25 15 2 25 4 16 6
-28 l2 -65 15 48 c8 26 19 47 24 47 5 0 7 -8 4 -17 -5 -15 -4 -16 5 -3 35 48
-24 109 -213 220 l-151 90 -3 -43 c-3 -36 -12 -51 -66 -107 -35 -36 -66 -73
-69 -82 -7 -20 -32 -24 -42 -8 -4 6 30 44 74 86 79 74 81 77 81 123 0 49 0 50
-82 89 -5 2 -8 -11 -8 -29z m358 -221 c20 -20 14 -48 -13 -60 -19 -9 -29 -8
-50 6 -24 16 -33 45 -18 59 11 12 68 8 81 -5z m-1189 -500 c1 -72 -1 -78 -19
-78 -18 0 -20 7 -20 78 0 42 3 95 7 117 l7 40 12 -40 c7 -22 13 -75 13 -117z
m312 70 c0 -2 4 -37 9 -78 5 -41 12 -88 14 -105 3 -16 3 -21 -1 -10 -3 11 -10
31 -16 45 -22 55 -34 150 -18 150 6 0 11 -1 12 -2z m-14 -190 c-2 -13 -4 -5
-4 17 -1 22 1 32 4 23 2 -10 2 -28 0 -40z"/>
<path d="M722 2359 l-53 -31 1 -234 c1 -222 11 -305 23 -191 6 56 38 151 62
183 10 14 8 1 -6 -46 -23 -74 -46 -337 -30 -353 10 -10 25 49 47 195 10 68 14
161 12 302 l-3 205 -53 -30z"/>
<path d="M1868 2305 c-3 -13 -2 -22 2 -20 11 7 20 45 10 45 -4 0 -10 -11 -12
-25z"/>
<path d="M601 2287 l-54 -32 2 -109 c2 -79 6 -113 16 -120 7 -6 15 -20 17 -30
2 -12 18 19 41 76 34 86 38 103 35 172 l-3 76 -54 -33z"/>
<path d="M469 2209 c-80 -56 -79 -54 -79 -217 l0 -146 29 28 c24 23 30 39 36
94 8 78 15 99 25 82 6 -9 13 -9 29 -1 19 11 21 20 21 101 0 50 -4 90 -8 90 -5
0 -29 -14 -53 -31z"/>
<path d="M646 2089 c-3 -13 -17 -73 -31 -132 -32 -140 -32 -151 4 -107 23 27
27 39 20 58 -11 29 -11 35 0 28 4 -3 11 34 14 82 5 87 2 115 -7 71z"/>
<path d="M347 2065 c-21 -45 -28 -88 -30 -198 -2 -86 1 -98 21 -74 9 11 37
296 29 303 -2 2 -11 -12 -20 -31z"/>
<path d="M862 2015 c0 -16 2 -22 5 -12 2 9 2 23 0 30 -3 6 -5 -1 -5 -18z"/>
<path d="M2725 1958 c5 -61 3 -88 -4 -88 -6 0 -11 -11 -11 -25 0 -19 5 -25 21
-25 21 0 22 3 17 93 -3 52 -10 102 -17 113 -10 15 -11 2 -6 -68z"/>
<path d="M480 1959 c0 -5 5 -7 10 -4 6 3 10 8 10 11 0 2 -4 4 -10 4 -5 0 -10
-5 -10 -11z"/>
<path d="M571 1954 c0 -11 3 -14 6 -6 3 7 2 16 -1 19 -3 4 -6 -2 -5 -13z"/>
<path d="M854 1956 c-3 -8 -4 -25 -2 -38 3 -17 5 -13 9 15 5 38 2 47 -7 23z"/>
<path d="M506 1938 c-27 -23 -27 -23 -11 -67 8 -24 15 -56 15 -72 0 -46 15
-34 30 24 15 53 15 115 0 130 -4 5 -19 -2 -34 -15z"/>
<path d="M412 1847 c-19 -20 -22 -35 -22 -105 0 -90 12 -106 28 -39 13 50 27
167 20 167 -2 0 -14 -10 -26 -23z"/>
<path d="M617 1822 c-23 -24 -27 -36 -27 -88 l1 -59 34 65 c33 62 44 110 27
110 -5 0 -20 -13 -35 -28z"/>
<path d="M329 1753 c-6 -16 -12 -45 -13 -66 -1 -29 3 -37 17 -37 14 0 17 10
17 65 0 36 -2 65 -5 65 -3 0 -10 -12 -16 -27z"/>
<path d="M650 1755 c-23 -61 -23 -75 -1 -75 19 0 21 6 21 50 0 56 -6 63 -20
25z"/>
<path d="M782 1750 c0 -14 2 -19 5 -12 2 6 2 18 0 25 -3 6 -5 1 -5 -13z"/>
<path d="M1107 1666 c-4 -10 -5 -21 -2 -24 9 -9 17 6 13 25 -3 17 -4 17 -11
-1z"/>
<path d="M1490 1586 c0 -35 4 -45 20 -49 17 -4 20 0 19 26 -1 71 -39 93 -39
23z"/>
<path d="M1571 1378 c-1 -9 -8 -18 -17 -20 -14 -2 -18 -19 -21 -85 -4 -81 -3
-83 19 -83 26 0 68 25 68 41 0 5 -9 0 -20 -11 -11 -11 -24 -20 -29 -20 -26 0
-30 124 -5 151 9 10 14 24 11 31 -4 9 -6 8 -6 -4z"/>
<path d="M1864 1355 c3 -11 17 -58 31 -105 14 -46 30 -89 35 -94 21 -21 7 -28
-50 -24 -68 5 -83 14 -56 34 24 17 8 40 -36 49 -41 9 -56 -7 -38 -40 18 -33
11 -38 -44 -30 -45 7 -57 17 -36 30 6 3 17 21 25 38 9 18 10 24 3 15 -11 -15
-13 -15 -23 5 -6 12 -19 23 -30 24 -18 2 -18 1 -2 -3 16 -5 18 -12 12 -52 -4
-26 -8 -49 -10 -52 -2 -3 -51 -4 -109 -2 -80 3 -106 7 -106 17 0 7 7 15 15 19
11 4 15 19 13 58 l-2 53 -3 -50 c-5 -57 -13 -65 -68 -65 l-40 0 3 54 c4 52
-13 106 -38 121 -6 4 -2 -8 10 -27 24 -40 25 -69 4 -114 -22 -46 -72 -70 -167
-81 -70 -8 -77 -8 -77 8 0 10 5 19 11 21 7 2 8 30 4 86 -6 66 -11 82 -24 82
-10 0 -12 -3 -5 -8 7 -4 14 -41 18 -82 4 -58 3 -69 -5 -48 -11 30 -45 46 -61
30 -8 -8 -4 -9 11 -5 19 5 21 2 21 -46 0 -34 -4 -51 -12 -51 -7 -1 -49 -7 -93
-15 -44 -8 -86 -15 -92 -15 -16 0 -17 27 -2 32 9 3 9 21 3 63 -7 49 -9 54 -12
27 -3 -31 -5 -33 -39 -30 -41 3 -55 23 -23 31 25 6 25 21 0 72 -19 38 -21 27
-4 -32 7 -27 -16 -32 -36 -8 -13 16 -75 21 -84 7 -9 -15 6 -52 20 -52 8 0 19
11 24 25 14 38 25 30 39 -27 8 -37 8 -55 1 -62 -8 -8 -14 -6 -21 7 -6 9 -19
17 -30 17 -16 0 -18 -5 -13 -27 9 -40 15 -43 51 -28 20 9 35 23 39 39 10 42
34 32 34 -14 0 -22 0 -43 0 -47 1 -4 -34 -14 -77 -23 -43 -9 -88 -20 -100 -24
-25 -8 -32 11 -13 30 7 7 4 36 -11 92 -18 65 -26 82 -41 82 -10 0 -18 4 -18 8
0 5 -7 9 -15 9 -9 0 -14 -6 -11 -13 3 -8 -2 -17 -10 -22 -14 -8 -13 -18 7 -87
16 -55 28 -79 41 -83 34 -9 18 -28 -38 -46 -60 -19 -75 -16 -57 13 18 28 -27
162 -57 173 -14 5 -20 14 -17 23 4 9 1 12 -9 8 -18 -7 -18 -17 2 -55 13 -25
13 -32 3 -39 -8 -5 -20 -2 -31 8 -21 19 -88 10 -88 -12 0 -44 36 -63 42 -22 5
37 30 25 44 -23 17 -57 17 -60 -1 -60 -8 0 -15 5 -15 10 0 6 -9 10 -20 10 -23
0 -23 0 -10 -34 7 -19 17 -26 35 -26 46 0 26 -25 -37 -47 -45 -15 -66 -19 -73
-11 -7 7 -6 12 3 15 17 7 16 19 -15 100 -20 52 -33 73 -47 75 -47 7 -21 28 79
63 58 21 104 39 102 41 -2 2 -30 -5 -62 -16 -73 -25 -225 -29 -225 -6 0 8 10
22 22 30 12 9 18 16 12 16 -20 0 -47 -40 -47 -68 0 -24 101 -299 184 -499 41
-98 54 -102 190 -57 402 133 734 181 1169 171 350 -8 617 -52 935 -154 157
-51 179 -54 206 -27 17 18 229 543 229 569 0 15 -39 65 -50 65 -5 0 3 -12 18
-27 l27 -28 -75 -3 c-56 -2 -92 3 -144 19 l-69 22 -18 -21 c-12 -16 -28 -22
-56 -22 -31 1 -35 3 -20 11 34 20 9 70 -35 68 -7 0 -3 -4 10 -9 26 -11 29 -28
5 -36 -43 -14 -93 -38 -93 -45 0 -4 4 -10 9 -13 5 -3 15 -30 21 -58 7 -29 17
-59 23 -66 17 -21 1 -24 -58 -11 -64 14 -72 21 -49 43 11 11 14 25 9 46 -7 34
-17 42 -38 34 -19 -7 -33 -57 -18 -62 17 -6 13 -32 -5 -32 -8 0 -35 5 -60 11
-45 12 -59 33 -26 41 13 4 21 22 30 68 12 65 10 97 -3 41 -5 -24 -12 -31 -31
-31 -21 0 -24 5 -24 34 0 32 20 66 39 66 5 0 14 -7 21 -15 7 -9 15 -14 17 -11
2 2 -7 15 -21 29 -14 15 -26 22 -26 17 0 -6 -7 -10 -15 -10 -19 0 -25 -14 -45
-114 -17 -85 -25 -94 -74 -82 -17 4 -28 24 -51 90 -31 89 -36 90 -49 8 -5 -33
-3 -44 9 -48 8 -4 15 -13 15 -21 0 -12 -10 -14 -52 -8 -65 9 -68 12 -41 33 16
13 22 32 26 77 l5 60 -10 -53 c-9 -45 -14 -53 -31 -50 -15 2 -27 24 -51 90
-17 48 -35 90 -40 95 -5 4 -6 -1 -2 -12z m-1292 -150 c14 -19 8 -25 -22 -25
-32 0 -33 2 -24 38 6 19 9 21 23 10 9 -7 19 -17 23 -23z m115 13 c-3 -8 -6 -5
-6 6 -1 11 2 17 5 13 3 -3 4 -12 1 -19z m2060 -33 l33 -14 0 -108 c0 -72 4
-113 12 -121 25 -25 -6 -32 -57 -13 -48 18 -74 51 -41 51 20 0 21 23 3 39 -8
6 -28 14 -44 17 -35 7 -51 -9 -33 -31 21 -25 3 -34 -42 -21 -46 14 -61 34 -32
43 20 5 124 125 124 141 0 6 -5 12 -12 14 -7 3 -8 10 -4 17 9 14 37 9 93 -14z
m-950 -1 c-3 -3 -12 -4 -19 -1 -8 3 -5 6 6 6 11 1 17 -2 13 -5z m-367 -139 c0
-10 -10 -15 -27 -16 -27 0 -27 -1 -5 -9 27 -11 29 -30 3 -30 -12 0 -21 -8 -23
-20 -6 -41 -23 -19 -26 35 l-3 55 41 0 c29 0 40 -4 40 -15z m80 6 c0 -6 -4
-13 -10 -16 -5 -3 -10 -17 -10 -30 0 -13 5 -27 10 -30 19 -12 10 -25 -17 -25
-27 0 -28 2 -28 55 0 53 1 55 28 55 15 0 27 -4 27 -9z m105 -6 c0 -5 -13 -12
-30 -14 -29 -4 -29 -4 -6 -10 36 -9 38 -31 4 -32 -27 -1 -27 -1 -4 -8 42 -12
37 -31 -8 -31 l-41 0 0 56 0 55 43 -3 c23 -2 42 -7 42 -13z m53 -30 c-5 -42
-4 -45 18 -45 15 0 24 -6 24 -15 0 -18 -65 -21 -75 -5 -4 6 -4 33 0 60 5 35
11 50 22 50 13 0 15 -9 11 -45z m-400 23 c-3 -7 -14 -14 -26 -16 -12 -2 -22
-7 -22 -12 0 -4 9 -6 20 -3 14 4 20 0 20 -11 0 -9 -8 -16 -20 -16 -15 0 -20
-7 -20 -25 0 -14 -4 -25 -9 -25 -14 0 -21 27 -21 76 l0 44 41 0 c28 0 39 -4
37 -12z m540 0 c15 -15 16 -53 2 -79 -8 -13 -21 -19 -45 -19 -38 0 -42 11 -29
79 5 25 11 31 33 31 15 0 32 -5 39 -12z m-650 -10 c7 -7 12 -29 12 -50 0 -40
-24 -63 -54 -52 -21 8 -38 71 -25 95 11 21 49 25 67 7z m810 -11 c10 -8 12
-24 7 -56 -9 -58 -12 -61 -35 -31 -17 21 -20 22 -20 7 0 -11 -5 -17 -12 -14
-13 4 -15 75 -3 104 5 15 38 10 63 -10z m-973 -13 c9 -9 15 -26 13 -38 -1 -11
1 -27 6 -34 12 -20 -2 -28 -24 -14 -25 16 -30 15 -30 -3 0 -16 -16 -21 -23 -7
-3 4 -7 28 -11 54 -6 40 -4 47 11 51 33 9 41 7 58 -9z m1084 7 c21 -13 3 -32
-25 -25 -14 4 -24 2 -24 -4 0 -6 9 -12 20 -14 25 -4 22 -23 -2 -22 -10 0 -18
-3 -18 -8 0 -4 9 -8 20 -8 11 0 20 -7 20 -15 0 -16 -20 -19 -58 -9 -20 6 -22
11 -16 43 11 65 14 71 42 71 15 0 33 -4 41 -9z m-1181 -23 c-3 -7 -14 -14 -26
-16 -12 -2 -22 -8 -22 -13 0 -6 10 -9 22 -7 29 4 34 -16 6 -31 -22 -11 -22
-11 5 -6 36 7 38 -22 2 -31 -39 -10 -50 0 -62 51 -10 43 -9 47 11 55 32 13 68
12 64 -2z m1286 -12 c8 -13 8 -20 0 -23 -6 -2 -9 -14 -7 -27 7 -35 -29 -53
-63 -31 -13 8 -24 20 -24 25 0 13 27 13 35 0 3 -5 12 -10 18 -10 7 0 0 10 -15
21 -16 11 -28 26 -28 33 0 37 64 47 84 12z m-1390 -13 c3 -10 8 -35 12 -55 5
-31 3 -38 -9 -38 -9 0 -19 5 -23 12 -5 7 -10 3 -16 -12 -11 -30 -22 -17 -36
39 -14 57 -6 68 26 39 21 -19 24 -20 19 -5 -8 20 -1 37 13 37 5 0 11 -8 14
-17z m1481 7 c32 -12 23 -34 -11 -26 -13 4 -24 2 -24 -3 0 -5 9 -11 20 -14 30
-8 24 -27 -7 -28 -27 0 -27 -1 -5 -9 12 -5 22 -14 22 -20 0 -13 -36 -13 -60 0
-18 10 -17 30 5 98 5 15 25 15 60 2z m-1585 -28 c0 -4 -5 -13 -11 -19 -7 -7
-8 -22 -1 -46 6 -20 7 -38 4 -41 -13 -13 -22 -4 -32 34 -6 24 -17 40 -25 40
-21 0 -19 28 3 33 29 8 62 7 62 -1z m1688 -46 c3 -51 -12 -82 -27 -57 -5 8
-18 12 -30 8 -33 -8 -34 8 -4 58 36 59 57 56 61 -9z m107 1 c13 -18 13 -24 0
-44 -8 -12 -15 -29 -15 -38 0 -23 -19 -18 -29 7 -5 14 -10 17 -15 10 -11 -19
-26 -14 -26 8 0 11 6 36 14 55 12 27 19 32 35 28 12 -3 28 -15 36 -26z m-1897
11 c7 -7 12 -24 12 -39 0 -15 5 -31 11 -35 8 -4 8 -9 0 -17 -8 -8 -14 -8 -23
1 -15 15 -29 16 -25 1 1 -6 -3 -13 -9 -16 -7 -2 -19 17 -28 43 -20 59 -20 62
2 67 32 8 48 7 60 -5z m-99 -63 c32 -45 34 -69 5 -58 -8 3 -23 -2 -33 -11 -17
-16 -19 -15 -25 15 -10 50 -7 87 7 92 6 3 12 6 13 6 0 1 15 -19 33 -44z m2096
23 c17 -26 3 -37 -21 -18 -18 15 -20 13 -30 -24 -6 -25 -5 -28 14 -22 27 9 38
-10 13 -23 -42 -23 -75 24 -50 71 23 44 50 50 74 16z m58 -24 c0 -5 -3 -18 -5
-28 -5 -29 19 -30 26 -1 4 14 13 25 22 25 16 0 14 -13 -12 -77 -16 -37 -34
-44 -34 -13 0 21 -15 27 -25 10 -9 -14 -25 -13 -25 2 0 26 34 98 44 95 6 -3
10 -8 9 -13z m-2245 -6 c17 -17 15 -44 -5 -64 -10 -10 -18 -22 -18 -27 0 -6
-5 -12 -10 -14 -6 -2 -19 20 -29 48 -16 43 -17 53 -5 60 20 12 53 11 67 -3z"/>
<path d="M2680 1105 c-13 -14 -22 -26 -19 -27 49 -30 49 -30 49 12 0 22 -1 40
-3 40 -2 0 -14 -11 -27 -25z"/>
<path d="M1766 1004 c-10 -25 -7 -34 9 -34 9 0 15 9 15 25 0 28 -15 34 -24 9z"/>
<path d="M1120 986 c0 -14 5 -28 10 -31 6 -4 10 7 10 24 0 17 -4 31 -10 31 -5
0 -10 -11 -10 -24z"/>
<path d="M1930 990 c0 -19 3 -21 12 -12 9 9 9 15 0 24 -9 9 -12 7 -12 -12z"/>
<path d="M952 979 c2 -7 10 -15 17 -17 8 -3 12 1 9 9 -2 7 -10 15 -17 17 -8 3
-12 -1 -9 -9z"/>
<path d="M2145 960 c3 -5 8 -10 11 -10 2 0 4 5 4 10 0 6 -5 10 -11 10 -5 0 -7
-4 -4 -10z"/>
<path d="M2440 875 c0 -9 5 -15 11 -13 6 2 11 8 11 13 0 5 -5 11 -11 13 -6 2
-11 -4 -11 -13z"/>
<path d="M550 875 c0 -9 5 -15 11 -13 6 2 11 8 11 13 0 5 -5 11 -11 13 -6 2
-11 -4 -11 -13z"/>
<path d="M356 805 c4 -8 10 -15 15 -15 5 0 9 7 9 15 0 8 -7 15 -15 15 -9 0
-12 -6 -9 -15z"/>
<path d="M1436 1353 c5 -5 12 -12 16 -18 4 -6 8 -2 8 8 0 9 -7 17 -17 17 -9 0
-12 -3 -7 -7z"/>
<path d="M1745 1340 c3 -5 8 -10 11 -10 2 0 4 5 4 10 0 6 -5 10 -11 10 -5 0
-7 -4 -4 -10z"/>
<path d="M927 1320 c-16 -15 -16 -24 -6 -93 10 -70 13 -77 35 -77 24 0 54 24
53 43 0 9 -2 8 -6 0 -7 -19 -41 -16 -52 5 -18 33 -24 92 -11 107 18 22 8 35
-13 15z"/>
<path d="M1163 1289 c4 -30 7 -66 7 -81 0 -23 4 -28 25 -28 36 0 65 33 65 74
0 43 -26 74 -69 83 l-34 6 6 -54z m71 15 c31 -31 10 -114 -29 -114 -12 0 -25
51 -25 103 0 31 28 37 54 11z"/>
<path d="M2126 1273 c15 -37 30 -77 34 -88 9 -20 9 -20 9 1 1 12 4 42 7 68 4
27 3 46 -3 46 -5 0 -8 -13 -5 -30 6 -45 -13 -36 -32 15 -10 25 -22 47 -26 50
-5 3 2 -25 16 -62z"/>
<path d="M1990 1315 c7 -9 15 -13 17 -11 7 7 -7 26 -19 26 -6 0 -6 -6 2 -15z"/>
<path d="M1782 1285 c-16 -35 -16 -35 13 -35 14 0 25 5 25 11 0 5 -4 8 -9 5
-4 -3 -6 6 -3 19 6 33 -12 32 -26 0z"/>
<path d="M2338 1303 c7 -3 16 -2 19 1 4 3 -2 6 -13 5 -11 0 -14 -3 -6 -6z"/>
<path d="M810 1291 c0 -6 4 -11 9 -11 5 0 12 -8 15 -17 3 -11 4 -8 3 6 -2 24
-27 44 -27 22z"/>
<path d="M2397 1289 c22 -7 31 -14 27 -24 -4 -8 -12 -15 -20 -15 -8 0 -14 -1
-14 -3 0 -1 -4 -16 -9 -34 l-9 -32 44 22 c36 17 43 25 38 42 -8 28 -42 55 -68
54 -15 -1 -12 -3 11 -10z m39 -64 c-21 -16 -32 -13 -21 4 3 6 14 11 23 11 15
-1 15 -2 -2 -15z"/>
<path d="M2475 1270 c11 -5 27 -9 35 -9 9 0 8 4 -5 9 -11 5 -27 9 -35 9 -9 0
-8 -4 5 -9z"/>
<path d="M438 1243 c7 -3 16 -2 19 1 4 3 -2 6 -13 5 -11 0 -14 -3 -6 -6z"/>
<path d="M1390 741 c41 -11 82 -81 86 -145 2 -31 -1 -56 -6 -56 -6 0 -10 -7
-10 -15 0 -9 -9 -15 -25 -15 -33 0 -32 -15 1 -16 56 -4 40 -34 -19 -35 -28 0
-36 -3 -24 -8 17 -6 16 -8 -7 -19 -60 -27 -100 -26 -172 6 l-69 31 -8 81 c-6
70 -4 86 13 120 24 48 30 51 99 61 40 5 29 6 -39 2 -187 -10 -472 -61 -648
-116 l-72 -22 445 -260 c246 -143 470 -268 498 -277 64 -21 117 -22 184 -5 52
14 683 374 683 390 0 16 -96 131 -166 198 l-69 66 -95 12 c-179 22 -305 30
-455 30 -82 -1 -139 -4 -125 -8z m-366 -173 c13 -21 0 -36 -16 -20 -14 14 -38
16 -38 3 0 -5 10 -11 21 -13 52 -7 49 -70 -3 -76 -29 -4 -57 23 -41 39 8 8 13
7 17 0 9 -14 36 -14 36 -1 0 6 -8 10 -18 10 -37 0 -55 43 -30 68 17 17 58 11
72 -10z m96 7 c0 -8 -4 -15 -9 -15 -4 0 -5 -19 0 -42 4 -24 8 -46 9 -50 0 -5
-12 -8 -27 -8 -28 0 -28 1 -28 65 0 64 0 65 28 65 17 0 27 -5 27 -15z m514 -1
c21 -20 20 -26 -4 -57 l-20 -25 21 -5 c33 -9 12 -27 -32 -27 -32 0 -39 4 -39
19 0 10 11 26 25 35 25 16 34 46 15 46 -5 0 -10 -4 -10 -10 0 -5 -7 -10 -15
-10 -15 0 -21 31 -8 43 12 13 51 7 67 -9z m116 -3 c24 -45 0 -111 -40 -111
-27 0 -40 22 -40 65 0 23 5 46 12 53 18 18 56 14 68 -7z m104 3 c23 -22 20
-77 -4 -99 -17 -15 -24 -16 -45 -7 -21 10 -25 18 -25 55 0 63 37 88 74 51z
m126 1 c0 -10 -10 -15 -27 -15 l-28 0 25 -13 c36 -18 40 -63 6 -78 -28 -13
-56 1 -56 27 0 17 12 18 27 3 15 -15 34 -3 26 16 -3 8 -16 15 -29 15 -20 0
-24 5 -24 30 0 28 2 30 40 30 29 0 40 -4 40 -15z"/>
<path d="M1700 545 c0 -8 2 -15 4 -15 2 0 6 7 10 15 3 8 1 15 -4 15 -6 0 -10
-7 -10 -15z"/>
<path d="M1710 505 c-8 -9 -8 -15 -2 -15 12 0 26 19 19 26 -2 2 -10 -2 -17
-11z"/>
<path d="M1810 545 c0 -8 2 -15 4 -15 2 0 6 7 10 15 3 8 1 15 -4 15 -6 0 -10
-7 -10 -15z"/>
<path d="M1820 505 c-8 -9 -8 -15 -2 -15 12 0 26 19 19 26 -2 2 -10 -2 -17
-11z"/>
<path d="M1410 552 c0 -11 39 -12 45 -1 4 5 -5 9 -19 9 -14 0 -26 -4 -26 -8z"/>
<path d="M1180 479 c0 -11 4 -18 10 -14 5 3 7 12 3 20 -7 21 -13 19 -13 -6z"/>
<path d="M1298 453 c7 -3 16 -2 19 1 4 3 -2 6 -13 5 -11 0 -14 -3 -6 -6z"/>
</g>
</svg>
